<svg width="199" height="75" viewBox="0 0 199 75" fill="none" xmlns="http://www.w3.org/2000/svg">
<g clip-path="url(#clip0_3_27)">
<path d="M1.9946 16.0268L16.5959 1.20722C16.8696 0.929298 17.2411 0.773197 17.6283 0.773197C18.0156 0.773197 18.387 0.929398 18.6608 1.20731L33.2613 16.0269C33.8316 16.6056 33.8316 17.5439 33.2613 18.1227C32.6912 18.7013 31.7667 18.7014 31.1964 18.1227L17.6283 4.35104L4.05945 18.1227C3.77435 18.412 3.40066 18.5567 3.02698 18.5567C2.6533 18.5567 2.27961 18.412 1.9945 18.1226C1.42438 17.5438 1.42439 16.6055 1.9946 16.0268Z" fill="#38BDF5" stroke="#38BDF5" stroke-width="2"/>
<path d="M25.7957 22.7741H33.5362V46.1457C33.5362 48.7699 32.8986 51.0661 31.6233 53.0342C30.3601 55.0024 28.5903 56.537 26.314 57.6383C24.0378 58.7277 21.3861 59.2725 18.3591 59.2725C15.3201 59.2725 12.6625 58.7277 10.3862 57.6383C8.10993 56.537 6.34018 55.0024 5.07691 53.0342C3.81364 51.0661 3.18201 48.7699 3.18201 46.1457V22.7741H10.9225V45.4955C10.9225 46.8662 11.2264 48.0846 11.8342 49.1507C12.4539 50.2168 13.3239 51.0544 14.4441 51.6636C15.5644 52.2728 16.8694 52.5773 18.3591 52.5773C19.8607 52.5773 21.1657 52.2728 22.274 51.6636C23.3942 51.0544 24.2583 50.2168 24.866 49.1507C25.4858 48.0846 25.7957 46.8662 25.7957 45.4955V22.7741ZM39.9046 58.7629V22.7741H54.3487C57.1255 22.7741 59.4912 23.2955 61.4456 24.3381C63.4002 25.369 64.8898 26.8042 65.9147 28.6434C66.9516 30.471 67.47 32.5797 67.47 34.9696C67.47 37.3594 66.9456 39.4682 65.8969 41.2957C64.8481 43.1232 63.3287 44.5466 61.3384 45.5658C59.3601 46.5851 56.9646 47.0947 54.1521 47.0947H44.9457V40.9969H52.9007C54.3904 40.9969 55.6179 40.7451 56.5833 40.2414C57.5605 39.7259 58.2875 39.0171 58.7642 38.1151C59.2528 37.2012 59.4971 36.1528 59.4971 34.9696C59.4971 33.7746 59.2528 32.7319 58.7642 31.8416C58.2875 30.9395 57.5605 30.2425 56.5833 29.7505C55.606 29.2468 54.3666 28.9948 52.865 28.9948H47.6451V58.7629H39.9046Z" fill="#38BDF5"/>
<path d="M83.3668 58.7629H70.2095L76.2875 22.7741H89.1945C92.8771 22.7741 95.9337 23.5122 98.365 24.9883C100.808 26.4644 102.53 28.5789 103.531 31.332C104.532 34.0734 104.711 37.3477 104.068 41.1551C103.448 44.8336 102.214 47.9909 100.367 50.6268C98.5199 53.2509 96.1539 55.266 93.2704 56.6718C90.3861 58.0659 87.0849 58.7629 83.3668 58.7629ZM79.058 52.2435H83.8136C86.1135 52.2435 88.1279 51.8217 89.8559 50.9782C91.5958 50.1347 93.0195 48.8344 94.1278 47.0771C95.2486 45.3198 96.0407 43.0705 96.5055 40.3292C96.9468 37.7285 96.9169 35.6197 96.4167 34.0031C95.9274 32.3746 94.9804 31.1855 93.574 30.4358C92.1677 29.6743 90.3208 29.2936 88.0319 29.2936H82.9374L79.058 52.2435ZM114.449 59.2725C112.709 59.2725 111.202 58.9737 109.927 58.3763C108.663 57.7671 107.734 56.8651 107.137 55.6701C106.542 54.4751 106.393 52.9932 106.691 51.2242C106.953 49.7247 107.447 48.4712 108.174 47.4637C108.914 46.4445 109.813 45.6244 110.874 45.0035C111.935 44.3826 113.108 43.9082 114.396 43.5801C115.694 43.2521 117.036 43.0295 118.418 42.9124C120.014 42.7484 121.314 42.5902 122.315 42.4379C123.328 42.2856 124.085 42.0689 124.585 41.7878C125.085 41.4949 125.39 41.0614 125.497 40.4873V40.3819C125.675 39.2807 125.467 38.4255 124.871 37.8163C124.287 37.1954 123.352 36.8849 122.065 36.8849C120.706 36.8849 119.55 37.1778 118.596 37.7636C117.655 38.3494 116.981 39.0932 116.576 39.9953L109.64 39.433C110.26 37.7929 111.195 36.3754 112.447 35.1804C113.71 33.9738 115.23 33.0482 117.006 32.4039C118.781 31.7479 120.772 31.4199 122.976 31.4199C124.502 31.4199 125.926 31.5956 127.248 31.9471C128.583 32.2985 129.734 32.8433 130.699 33.5813C131.676 34.3194 132.379 35.2683 132.808 36.428C133.249 37.5762 133.339 38.9527 133.077 40.5576L129.984 58.7629H122.762L123.405 55.0199H123.19C122.607 55.8634 121.892 56.6073 121.045 57.2517C120.199 57.8842 119.228 58.3822 118.132 58.7453C117.036 59.0968 115.808 59.2725 114.449 59.2725ZM117.506 54.1062C118.614 54.1062 119.634 53.8894 120.563 53.456C121.504 53.0108 122.279 52.4133 122.887 51.6636C123.507 50.9138 123.9 50.0644 124.067 49.1155L124.532 46.2512C124.293 46.4035 123.947 46.5382 123.495 46.6553C123.054 46.7725 122.571 46.8838 122.047 46.9892C121.534 47.0829 121.016 47.1708 120.492 47.2528C119.967 47.3231 119.496 47.3934 119.079 47.4637C118.161 47.5925 117.339 47.7976 116.612 48.0787C115.885 48.3599 115.295 48.7406 114.843 49.221C114.39 49.6896 114.11 50.2753 114.003 50.9782C113.835 51.9974 114.08 52.7765 114.735 53.3153C115.403 53.8426 116.326 54.1062 117.506 54.1062ZM161.973 39.4682L155.056 39.8899C155.019 39.2924 154.853 38.7594 154.555 38.2907C154.269 37.8104 153.846 37.4297 153.286 37.1486C152.738 36.8674 152.046 36.7268 151.212 36.7268C149.96 36.7268 148.846 37.0079 147.869 37.5703C146.892 38.1326 146.337 38.8531 146.207 39.7318C146.099 40.294 146.248 40.7685 146.654 41.1551C147.059 41.5417 147.875 41.8697 149.102 42.1392L153.929 43.1232C156.504 43.6621 158.362 44.5584 159.507 45.8119C160.662 47.0654 161.074 48.7055 160.74 50.7322C160.442 52.4543 159.673 53.9597 158.434 55.2483C157.194 56.5253 155.621 57.5211 153.714 58.2357C151.808 58.9386 149.693 59.2901 147.369 59.2901C143.639 59.2901 140.802 58.5403 138.859 57.0408C136.917 55.5412 135.981 53.5086 136.053 50.9431L143.489 50.5565C143.549 51.6577 143.942 52.4895 144.669 53.0518C145.396 53.6024 146.392 53.8836 147.655 53.8952C149.073 53.9187 150.276 53.6317 151.265 53.0342C152.266 52.425 152.833 51.687 152.964 50.8201C153.059 50.2109 152.881 49.7188 152.428 49.344C151.986 48.969 151.176 48.6586 149.996 48.4126L145.42 47.4813C142.822 46.9541 140.956 46.011 139.825 44.6521C138.693 43.2931 138.305 41.5652 138.663 39.4682C138.948 37.7929 139.658 36.3578 140.79 35.1629C141.934 33.9562 143.406 33.0307 145.205 32.3864C147.017 31.742 149.06 31.4199 151.337 31.4199C154.901 31.4199 157.582 32.1404 159.382 33.5813C161.193 35.0223 162.057 36.9845 161.973 39.4682ZM174.455 43.1584L171.81 58.7629H164.213L170.29 22.7741H177.673L175.385 36.5335H175.689C176.571 34.9403 177.781 33.6926 179.318 32.7905C180.856 31.8768 182.673 31.4199 184.77 31.4199C186.677 31.4199 188.268 31.8299 189.543 32.65C190.831 33.4583 191.742 34.6239 192.279 36.1469C192.814 37.6581 192.904 39.4682 192.546 41.5768L189.615 58.7629H182.017L184.699 42.9124C184.973 41.2488 184.752 39.9543 184.037 39.0288C183.334 38.1033 182.214 37.6406 180.677 37.6406C179.64 37.6406 178.686 37.8573 177.816 38.2907C176.946 38.7242 176.213 39.3568 175.618 40.1886C175.033 41.0087 174.646 41.9986 174.455 43.1584Z" fill="white"/>
</g>
<defs>
<clipPath id="clip0_3_27">
<rect width="199" height="75" fill="white"/>
</clipPath>
</defs>
</svg>
